<svg width="1728" height="1117" viewBox="0 0 1728 1117" fill="none" xmlns="http://www.w3.org/2000/svg">
<rect width="1728" height="1117" fill="black"/>
<g filter="url(#filter0_f_14_30)">
<path d="M564 -41.5C564 198.468 302.982 393 -19 393C-340.982 393 -602 198.468 -602 -41.5C-602 -281.468 -340.982 -476 -19 -476C302.982 -476 564 -281.468 564 -41.5Z" fill="#FF00CC" fill-opacity="0.26"/>
<path d="M563.5 -41.5C563.5 78.2898 498.352 186.778 392.944 265.337C287.537 343.896 141.894 392.5 -19 392.5C-179.894 392.5 -325.537 343.896 -430.944 265.337C-536.352 186.778 -601.5 78.2898 -601.5 -41.5C-601.5 -161.29 -536.352 -269.778 -430.944 -348.337C-325.537 -426.896 -179.894 -475.5 -19 -475.5C141.894 -475.5 287.537 -426.896 392.944 -348.337C498.352 -269.778 563.5 -161.29 563.5 -41.5Z" stroke="#FF00CC" stroke-opacity="0.26"/>
</g>
<g filter="url(#filter1_f_14_30)">
<path d="M1956 526C1956 731.45 1799.97 898 1607.5 898C1415.03 898 1259 731.45 1259 526C1259 320.55 1415.03 154 1607.5 154C1799.97 154 1956 320.55 1956 526Z" fill="#AB0EFF" fill-opacity="0.3"/>
<path d="M1955.5 526C1955.5 731.205 1799.66 897.5 1607.5 897.5C1415.34 897.5 1259.5 731.205 1259.5 526C1259.5 320.795 1415.34 154.5 1607.5 154.5C1799.66 154.5 1955.5 320.795 1955.5 526Z" stroke="#FF00CC" stroke-opacity="0.26"/>
</g>
<g filter="url(#filter2_f_14_30)">
<path d="M337 13C337 165.431 210.744 289 55 289C-100.744 289 -227 165.431 -227 13C-227 -139.431 -100.744 -263 55 -263C210.744 -263 337 -139.431 337 13Z" fill="#FF00CC" fill-opacity="0.26"/>
<path d="M336.5 13C336.5 165.144 210.478 288.5 55 288.5C-100.478 288.5 -226.5 165.144 -226.5 13C-226.5 -139.144 -100.478 -262.5 55 -262.5C210.478 -262.5 336.5 -139.144 336.5 13Z" stroke="#FF00CC" stroke-opacity="0.26"/>
</g>
<g filter="url(#filter3_f_14_30)">
<path d="M120 549.5C120 570.211 102.987 587 82 587C61.0132 587 44 570.211 44 549.5C44 528.789 61.0132 512 82 512C102.987 512 120 528.789 120 549.5Z" fill="#FF00CC" fill-opacity="0.26"/>
<path d="M119.5 549.5C119.5 569.928 102.717 586.5 82 586.5C61.2831 586.5 44.5 569.928 44.5 549.5C44.5 529.072 61.2831 512.5 82 512.5C102.717 512.5 119.5 529.072 119.5 549.5Z" stroke="#FF00CC" stroke-opacity="0.26"/>
</g>
<g filter="url(#filter4_f_14_30)">
<path d="M1134 154.5C1134 175.211 1116.99 192 1096 192C1075.01 192 1058 175.211 1058 154.5C1058 133.789 1075.01 117 1096 117C1116.99 117 1134 133.789 1134 154.5Z" fill="#AB0EFF" fill-opacity="0.3"/>
<path d="M1133.5 154.5C1133.5 174.928 1116.72 191.5 1096 191.5C1075.28 191.5 1058.5 174.928 1058.5 154.5C1058.5 134.072 1075.28 117.5 1096 117.5C1116.72 117.5 1133.5 134.072 1133.5 154.5Z" stroke="#FF00CC" stroke-opacity="0.26"/>
</g>
<g filter="url(#filter5_f_14_30)">
<path d="M1129 163C1129 176.255 1118.03 187 1104.5 187C1090.97 187 1080 176.255 1080 163C1080 149.745 1090.97 139 1104.5 139C1118.03 139 1129 149.745 1129 163Z" fill="#6861FF" fill-opacity="0.45"/>
<path d="M1128.5 163C1128.5 175.969 1117.76 186.5 1104.5 186.5C1091.24 186.5 1080.5 175.969 1080.5 163C1080.5 150.031 1091.24 139.5 1104.5 139.5C1117.76 139.5 1128.5 150.031 1128.5 163Z" stroke="#FF00CC" stroke-opacity="0.26"/>
</g>
<g filter="url(#filter6_f_14_30)">
<path d="M305 966C305 976.493 296.717 985 286.5 985C276.283 985 268 976.493 268 966C268 955.507 276.283 947 286.5 947C296.717 947 305 955.507 305 966Z" fill="#6861FF" fill-opacity="0.45"/>
<path d="M304.5 966C304.5 976.23 296.429 984.5 286.5 984.5C276.571 984.5 268.5 976.23 268.5 966C268.5 955.77 276.571 947.5 286.5 947.5C296.429 947.5 304.5 955.77 304.5 966Z" stroke="#FF00CC" stroke-opacity="0.26"/>
</g>
<g filter="url(#filter7_f_14_30)">
<path d="M1002 397C1002 436.212 865.671 468 697.5 468C529.329 468 393 436.212 393 397C393 357.788 529.329 326 697.5 326C865.671 326 1002 357.788 1002 397Z" fill="#AB0EFF" fill-opacity="0.3"/>
<path d="M1001.5 397C1001.5 401.747 999.439 406.42 995.438 410.979C991.433 415.542 985.505 419.967 977.83 424.199C962.479 432.661 940.233 440.298 912.701 446.718C857.644 459.555 781.559 467.5 697.5 467.5C613.441 467.5 537.356 459.555 482.3 446.718C454.767 440.298 432.521 432.661 417.171 424.199C409.495 419.967 403.567 415.542 399.562 410.979C395.561 406.42 393.5 401.747 393.5 397C393.5 392.253 395.561 387.58 399.562 383.021C403.567 378.458 409.495 374.033 417.171 369.801C432.521 361.339 454.767 353.702 482.3 347.282C537.356 334.445 613.441 326.5 697.5 326.5C781.559 326.5 857.644 334.445 912.701 347.282C940.233 353.702 962.479 361.339 977.83 369.801C985.505 374.033 991.433 378.458 995.438 383.021C999.439 387.58 1001.5 392.253 1001.5 397Z" stroke="#FF00CC" stroke-opacity="0.26"/>
</g>
<g filter="url(#filter8_f_14_30)">
<path d="M1000 402.5C1000 429.838 918.74 452 818.5 452C718.26 452 637 429.838 637 402.5C637 375.162 718.26 353 818.5 353C918.74 353 1000 375.162 1000 402.5Z" fill="#FF00CC" fill-opacity="0.26"/>
<path d="M999.5 402.5C999.5 409.07 994.612 415.45 985.466 421.347C976.342 427.23 963.107 432.547 946.708 437.019C913.917 445.962 868.589 451.5 818.5 451.5C768.411 451.5 723.083 445.962 690.292 437.019C673.893 432.547 660.658 427.23 651.534 421.347C642.388 415.45 637.5 409.07 637.5 402.5C637.5 395.93 642.388 389.55 651.534 383.653C660.658 377.77 673.893 372.453 690.292 367.981C723.083 359.038 768.411 353.5 818.5 353.5C868.589 353.5 913.917 359.038 946.708 367.981C963.107 372.453 976.342 377.77 985.466 383.653C994.612 389.55 999.5 395.93 999.5 402.5Z" stroke="#FF00CC" stroke-opacity="0.26"/>
</g>
<g filter="url(#filter9_f_14_30)">
<path d="M240 1310.5C240 1538.32 113.744 1723 -42 1723C-197.744 1723 -324 1538.32 -324 1310.5C-324 1082.68 -197.744 898 -42 898C113.744 898 240 1082.68 240 1310.5Z" fill="#6861FF" fill-opacity="0.5"/>
<path d="M239.5 1310.5C239.5 1424.32 207.959 1527.34 156.991 1601.9C106.022 1676.46 35.6588 1722.5 -42 1722.5C-119.659 1722.5 -190.022 1676.46 -240.991 1601.9C-291.959 1527.34 -323.5 1424.32 -323.5 1310.5C-323.5 1196.68 -291.959 1093.66 -240.991 1019.1C-190.022 944.544 -119.659 898.5 -42 898.5C35.6588 898.5 106.022 944.544 156.991 1019.1C207.959 1093.66 239.5 1196.68 239.5 1310.5Z" stroke="#FF00CC" stroke-opacity="0.99"/>
</g>
<defs>
<filter id="filter0_f_14_30" x="-852" y="-726" width="1666" height="1369" filterUnits="userSpaceOnUse" color-interpolation-filters="sRGB">
<feFlood flood-opacity="0" result="BackgroundImageFix"/>
<feBlend mode="normal" in="SourceGraphic" in2="BackgroundImageFix" result="shape"/>
<feGaussianBlur stdDeviation="125" result="effect1_foregroundBlur_14_30"/>
</filter>
<filter id="filter1_f_14_30" x="1009" y="-96" width="1197" height="1244" filterUnits="userSpaceOnUse" color-interpolation-filters="sRGB">
<feFlood flood-opacity="0" result="BackgroundImageFix"/>
<feBlend mode="normal" in="SourceGraphic" in2="BackgroundImageFix" result="shape"/>
<feGaussianBlur stdDeviation="125" result="effect1_foregroundBlur_14_30"/>
</filter>
<filter id="filter2_f_14_30" x="-427" y="-463" width="964" height="952" filterUnits="userSpaceOnUse" color-interpolation-filters="sRGB">
<feFlood flood-opacity="0" result="BackgroundImageFix"/>
<feBlend mode="normal" in="SourceGraphic" in2="BackgroundImageFix" result="shape"/>
<feGaussianBlur stdDeviation="100" result="effect1_foregroundBlur_14_30"/>
</filter>
<filter id="filter3_f_14_30" x="-6" y="462" width="176" height="175" filterUnits="userSpaceOnUse" color-interpolation-filters="sRGB">
<feFlood flood-opacity="0" result="BackgroundImageFix"/>
<feBlend mode="normal" in="SourceGraphic" in2="BackgroundImageFix" result="shape"/>
<feGaussianBlur stdDeviation="25" result="effect1_foregroundBlur_14_30"/>
</filter>
<filter id="filter4_f_14_30" x="1008" y="67" width="176" height="175" filterUnits="userSpaceOnUse" color-interpolation-filters="sRGB">
<feFlood flood-opacity="0" result="BackgroundImageFix"/>
<feBlend mode="normal" in="SourceGraphic" in2="BackgroundImageFix" result="shape"/>
<feGaussianBlur stdDeviation="25" result="effect1_foregroundBlur_14_30"/>
</filter>
<filter id="filter5_f_14_30" x="1050" y="109" width="109" height="108" filterUnits="userSpaceOnUse" color-interpolation-filters="sRGB">
<feFlood flood-opacity="0" result="BackgroundImageFix"/>
<feBlend mode="normal" in="SourceGraphic" in2="BackgroundImageFix" result="shape"/>
<feGaussianBlur stdDeviation="15" result="effect1_foregroundBlur_14_30"/>
</filter>
<filter id="filter6_f_14_30" x="238" y="917" width="97" height="98" filterUnits="userSpaceOnUse" color-interpolation-filters="sRGB">
<feFlood flood-opacity="0" result="BackgroundImageFix"/>
<feBlend mode="normal" in="SourceGraphic" in2="BackgroundImageFix" result="shape"/>
<feGaussianBlur stdDeviation="15" result="effect1_foregroundBlur_14_30"/>
</filter>
<filter id="filter7_f_14_30" x="193" y="126" width="1009" height="542" filterUnits="userSpaceOnUse" color-interpolation-filters="sRGB">
<feFlood flood-opacity="0" result="BackgroundImageFix"/>
<feBlend mode="normal" in="SourceGraphic" in2="BackgroundImageFix" result="shape"/>
<feGaussianBlur stdDeviation="100" result="effect1_foregroundBlur_14_30"/>
</filter>
<filter id="filter8_f_14_30" x="437" y="153" width="763" height="499" filterUnits="userSpaceOnUse" color-interpolation-filters="sRGB">
<feFlood flood-opacity="0" result="BackgroundImageFix"/>
<feBlend mode="normal" in="SourceGraphic" in2="BackgroundImageFix" result="shape"/>
<feGaussianBlur stdDeviation="100" result="effect1_foregroundBlur_14_30"/>
</filter>
<filter id="filter9_f_14_30" x="-574" y="648" width="1064" height="1325" filterUnits="userSpaceOnUse" color-interpolation-filters="sRGB">
<feFlood flood-opacity="0" result="BackgroundImageFix"/>
<feBlend mode="normal" in="SourceGraphic" in2="BackgroundImageFix" result="shape"/>
<feGaussianBlur stdDeviation="125" result="effect1_foregroundBlur_14_30"/>
</filter>
</defs>
</svg>
